<svg xmlns="http://www.w3.org/2000/svg" viewBox="10.67 13.68 234.66 230.59">
  <path d="M14.65 174.31c-.49 5.63 104 66 112.31 66s114.09-58.53 114.39-65.07-104-66.55-112.61-66.55-113.5 58.79-114.09 65.62z" fill="#fff"/>
  <path d="M27.82 163.58c28.25 18.9 92.68 55.26 99.14 55.26s72.81-35.91 101.39-54.61c-28.17-19.19-92.9-55.59-99.61-55.59s-72.36 35.99-100.92 54.94z" fill="#e6e6e6"/>
  <path d="M127 244.27c-6.38 0-42-20.18-57.05-28.85-8.32-4.8-50.16-29.14-57.39-37a5.86 5.86 0 0 1-1.89-4.42c.19-2.15.38-4.37 18.68-16.16 9.57-6.17 22.84-14.11 37.36-22.37 9-5.14 54.54-30.79 62-30.79 6.58 0 41.61 19.79 56.37 28.3 23.71 13.67 51.38 30.72 57.93 37.58 1.12 1.18 2.4 2.79 2.31 4.86-.12 2.65-1.49 5.2-18.68 16.12-9.58 6.09-22.92 14-37.54 22.17-9.1 5.07-54.84 30.56-62.1 30.56zm-107.18-70c5.42 4.63 23.68 16.58 51.52 32.73 30 17.39 51.59 28.4 55.63 29.24 4.08-.81 26.55-11.82 56.63-28.65 29-16.22 47.4-27.94 52.72-32.5-5.18-4.66-23.24-16.66-51.72-33.21-29.62-17.21-51.84-28.46-55.86-29.23-4 .75-26.52 11.85-56.56 28.87-28.72 16.29-47.01 28.1-52.4 32.77z" fill="#191919"/>
  <path d="M14.65 130.63c-.49 5.63 104 66 112.31 66s114.09-58.53 114.39-65.07S137.36 65 128.74 65s-113.5 58.8-114.09 65.63z" fill="#ff7400"/>
  <path d="M31.11 117.75c29.67 19.37 89.63 53.09 95.85 53.09s68-33.32 98.1-52.49C195.44 98.71 135.2 65 128.74 65s-67.61 33.36-97.63 52.75z" fill="#d66000"/>
  <path d="M127 200.59c-6.38 0-42-20.18-57.05-28.85-8.32-4.8-50.16-29.14-57.39-37a5.86 5.86 0 0 1-1.85-4.43c.19-2.15.38-4.37 18.68-16.16C38.92 108 52.19 100 66.71 91.76c9-5.14 54.54-30.79 62-30.79 6.58 0 41.61 19.79 56.37 28.3 23.74 13.67 51.41 30.73 57.92 37.58 1.12 1.18 2.4 2.79 2.31 4.86-.12 2.65-1.49 5.2-18.68 16.12-9.58 6.09-22.92 14-37.54 22.17-9.09 5.11-54.83 30.59-62.09 30.59zm-107.18-70c5.46 4.61 23.72 16.56 51.56 32.71 30 17.39 51.59 28.4 55.63 29.24 4.08-.81 26.55-11.82 56.63-28.65 29-16.22 47.4-27.94 52.72-32.5-5.18-4.66-23.24-16.66-51.72-33.21C155 81 132.76 69.76 128.74 69c-4 .75-26.52 11.85-56.56 28.87-28.72 16.26-47.01 28.08-52.4 32.74z" fill="#191919"/>
  <path d="M14.65 83.39c-.49 5.63 104 66 112.31 66s114.09-58.57 114.39-65.11-104-66.55-112.61-66.55S15.24 76.56 14.65 83.39z" fill="#fff"/>
  <path d="M127 153.35c-6.38 0-42-20.18-57.05-28.85-8.32-4.8-50.16-29.14-57.39-37a5.86 5.86 0 0 1-1.89-4.5c.19-2.15.38-4.37 18.68-16.16 9.57-6.17 22.84-14.11 37.36-22.37 9-5.14 54.54-30.79 62-30.79 6.58 0 41.61 19.79 56.37 28.3C208.82 55.7 236.49 72.75 243 79.61c1.12 1.18 2.4 2.79 2.31 4.86-.12 2.65-1.49 5.2-18.68 16.12-9.58 6.09-22.92 14-37.54 22.17-9.09 5.11-54.83 30.59-62.09 30.59zm-107.18-70C25.24 88 43.5 99.93 71.34 116.09c30 17.39 51.59 28.4 55.63 29.24 4.08-.81 26.55-11.82 56.63-28.65 29-16.22 47.4-27.94 52.72-32.5-5.18-4.66-23.24-16.65-51.72-33.18-29.6-17.24-51.84-28.48-55.86-29.25-4 .75-26.52 11.85-56.56 28.87-28.72 16.27-47.01 28.08-52.4 32.75z" fill="#191919"/>
  <path d="M77.61 65.79c-.35 4 73.69 46.74 79.58 46.74s50.92-23.83 51.13-28.46-73.69-47.16-79.79-47.16S78 60.94 77.61 65.79z" fill="#fff"/>
  <path d="M157.19 116.52c-4.4 0-24.73-11.2-41-20.6-5.92-3.42-35.7-20.75-40.95-26.46a5.36 5.36 0 0 1-1.61-4c.17-2 .49-5.59 25.37-19.41 5.55-3.08 24.07-13.13 29.53-13.13 8.2 0 74.26 39.12 81.83 47a5.94 5.94 0 0 1 2 4.3c-.1 2.21-.25 5.56-25.52 19.3-4.03 2.19-24.18 13-29.65 13zM82.84 65.61c11.28 8.94 66.45 40.93 74.46 42.89 5.58-.94 37.84-17.75 45.84-24.36-10.9-8.94-66.67-41.41-74.74-43.22-5.23.75-37.51 17.87-45.56 24.69z" fill="#191919"/>
  <ellipse cx="72.94" cy="83.28" fill="#fff" rx="4.66" ry="6.14" transform="rotate(-68.78 72.943 83.289)"/>
  <path d="M74.08 92.18a11.82 11.82 0 0 1-4.27-.82 11.21 11.21 0 0 1-5.51-4.48A7.91 7.91 0 0 1 69 74.79a11.21 11.21 0 0 1 7.09.42c5.3 2.06 8.07 7.22 6.32 11.74a8.59 8.59 0 0 1-8.33 5.23zm-3.06-9.67A3.53 3.53 0 0 0 74.86 84 3.53 3.53 0 0 0 71 82.54z" fill="#191919"/>
  <path d="M57.63 77.75c.88.88 79.08 49.46 80.38 50.13 4.38 2.25 6.88-4.87 5.13-6.25-1.35-1.06-78.5-48.63-79.76-49.38-3.25-1.87-7.63 3.63-5.75 5.5zm46 33.38c1.69.62 9.47 5.48 10.5 6.75 2.13 2.63-.12 7.38-4.12 6A39.43 39.43 0 0 1 100 118c-4-3.5.88-7.87 3.63-6.87zm18.12 11.75c-3.56-2.23-7.25 4.25-4.25 6.63 1.88 1.49 7.49 5.18 10 6.13 4 1.5 7.13-4.25 4.38-6.75-2.43-2.22-8.13-4.76-10.13-6.01z" fill="#191919"/>
</svg>