<svg xmlns="http://www.w3.org/2000/svg" viewBox="19.72 15.42 216.26 225.1">
  <g fill="#191919">
    <path d="M30.12 229c-3.21-3.53-3.21-198.59 0-201.93 5.07-5.27 189.71-4.36 195.67 0 3.41 2.49 2.55 199.67 0 201.93-5.65 5-191.67 4.39-195.67 0z"/>
    <path d="M131.94 240.52h-4.62c-24.78 0-48.22-.38-66-1-33.42-1.1-34.58-2.38-37.12-5.17-2.36-2.6-3.15-3.47-3.88-37.78-.39-18.27-.6-42.65-.6-68.63s.21-50.35.6-68.6c.73-34.4 1.5-35.2 4-37.84s4-4.21 37.38-5.29c17.34-.56 40.75-.84 65.91-.78 24.58.06 48 .43 66 1 32.71 1.11 34.53 2.43 36.83 4.12 3.62 2.64 3.93 6 4.45 17.39 1.09 23.51 1.21 74.41 1 110.86-.14 21.66-.41 41.43-.76 55.68-.19 7.64-.4 13.65-.63 17.88-.37 6.87-.54 10-3.45 12.58-2.42 2.13-4.16 3.68-37.44 4.73-16.48.57-38.25.85-61.67.85zm-94.72-18.2c27 2.87 154.88 2.91 181.36.07 1.8-28.17 1.9-161.42.15-188.53-11.84-1.17-45.24-2.27-90.39-2.39-47.93-.12-79.93.92-91.11 2.16-1.93 27.08-1.93 161.28-.01 188.69z"/>
  </g>
  <g fill="#191919">
    <path d="M227.49 58.95c.76-1.14.68-30.92-1.21-31.94-6.49-3.53-191.94-5.82-196.54-.14-1.31 1.62-1.94 31.23-1.14 32.51s198.13.7 198.89-.43z"/>
    <path d="M99 68.1c-23.09 0-44.67-.08-58-.27-4-.06-7.18-.13-9.33-.2-4.05-.14-7.55-.27-9.9-4-1.21-1.93-1.94-3.1-1.45-20.61.51-17.94 1.56-19.24 3.14-21.19 2.65-3.27 5.36-4.89 37.72-5.83 17-.5 40.48-.68 66.11-.52 23.81.15 48 .6 66.4 1.22 32.34 1.1 34.38 2.21 36.35 3.28a9.2 9.2 0 0 1 4.46 6.24c1 3.94 1.27 12.47 1.35 18.94.19 15.3-.51 16.34-1.78 18.24-2.42 3.61-5 3.68-12.84 3.89-3.94.1-9.65.2-17 .3-13.49.17-32.62.31-53.87.41-16 .06-34.09.1-51.36.1zM36.24 51.75c30.11.6 153.53.32 183.7-.42 0-5.29-.1-12.65-.43-17.33-26.79-2.36-156.57-3.88-182.66-.71-.36 4.9-.59 12.85-.61 18.46z"/>
  </g>
  <path d="M30.12 229c-3.21-3.53-3.21-198.59 0-201.93 5.07-5.27 189.71-4.36 195.67 0 3.41 2.49 2.55 199.67 0 201.93-5.65 5-191.67 4.39-195.67 0z" fill="#fff"/>
  <path d="M227.49 58.95c.76-1.14.68-30.92-1.21-31.94-6.49-3.53-191.94-5.82-196.54-.14-1.31 1.62-1.94 31.23-1.14 32.51s198.13.7 198.89-.43z" fill="#fff"/>
  <path d="M56.18 44.7c-.91 3.46-4.23 4.25-6.88 3.22s-4.77-3.39-3.22-6.92 4.09-4.2 6.92-3.19 4.09 3.43 3.18 6.89zm16.46 0c-.91 3.46-4.23 4.25-6.88 3.22S61 44.53 62.54 41s4.09-4.23 6.88-3.22 4.13 3.46 3.22 6.92zm16.46 0c-.91 3.46-4.23 4.25-6.88 3.22S77.45 44.53 79 41s4.09-4.23 6.88-3.22S90 41.24 89.1 44.7zM27 172.74C22.84 169.89 24.78 64.48 27 62c4-4.47 199.37-.74 206.12.85 1.59.38 2.62 106.83-3.41 109.91S31.19 175.59 27 172.74z" fill="#191919"/>
  <path d="M57.38 190c-4.25.13-4.75 9.13-.37 9.25 2 .06 137.13 0 139.88 0 5 0 5.25-8 .63-8.5-3.27-.35-137.02-.84-140.14-.75z" fill="#ff7400"/>
  <path d="M85.25 194.8c0 4.47-2.77 8.3-8.09 8.09a8.21 8.21 0 0 1-8.09-8.09c0-4.47 3.64-8.52 8.09-8.09s8.09 3.62 8.09 8.09z" fill="#fff"/>
  <path d="M77.58 206.9H77a12.23 12.23 0 0 1-11.93-12.1 12.45 12.45 0 0 1 4.06-9.2 10.88 10.88 0 0 1 8.41-2.87c6.79.65 11.71 5.72 11.71 12.07a12.3 12.3 0 0 1-3.6 9 11.36 11.36 0 0 1-8.07 3.1zm-1.06-16.22a3 3 0 0 0-2 .84 4.5 4.5 0 0 0-1.44 3.28 4.2 4.2 0 0 0 4.25 4.09 3.69 3.69 0 0 0 2.79-.85 4.49 4.49 0 0 0 1.14-3.24c0-2.53-2.32-3.9-4.47-4.11z" fill="#191919"/>
  <path d="M112.91 89c-3.43 2.18-2.4 46.77-.42 49.4s39.47-21 39.51-25.26S116.34 86.77 112.91 89z" fill="#fff"/>
  <path d="M152.83 210.08c-2.67.09-3.67 7.75-.08 8.08a128.46 128.46 0 0 0 14.83-.08c3.25-.42 3.25-7.5.08-8-1.81-.28-12.33-.08-14.83 0zm23.34 0c-2.67.09-3.67 7.75-.08 8.08s20.09.13 21.83 0c3.42-.25 3.25-7.58.08-8.08-1.82-.28-19.33-.08-21.83 0z" fill="#191919"/>
</svg>